<?xml version="1.0" standalone="no"?>
<!DOCTYPE svg PUBLIC "-//W3C//DTD SVG 20010904//EN"
 "http://www.w3.org/TR/2001/REC-SVG-20010904/DTD/svg10.dtd">
<svg version="1.0" xmlns="http://www.w3.org/2000/svg"
 width="300.000000pt" height="300.000000pt" viewBox="0 0 300.000000 300.000000"
 preserveAspectRatio="xMidYMid meet">
<metadata>
Created by potrace 1.10, written by Peter Selinger 2001-2011
</metadata>
<g transform="translate(0.000000,300.000000) scale(0.100000,-0.100000)"
fill="#0283d2" stroke="none">
<path d="M1387 2606 c-53 -15 -78 -31 -32 -22 23 5 21 3 -9 -9 -22 -8 -42 -13
-44 -10 -3 3 0 5 6 5 7 0 12 5 12 10 0 6 -27 -3 -59 -20 -67 -35 -145 -113
-181 -182 -23 -45 -27 -47 -66 -46 -84 1 -170 -84 -223 -221 -68 -177 -118
-425 -170 -841 -47 -371 -38 -706 22 -841 46 -105 127 -219 127 -179 0 6 40
-15 89 -45 99 -61 167 -94 194 -95 13 0 17 8 17 36 l0 36 43 -8 c23 -5 69 -9
102 -9 58 0 60 1 63 28 4 31 22 37 22 7 0 -30 37 -47 115 -54 39 -4 109 -12
157 -18 102 -14 113 -9 123 57 7 53 25 60 25 10 0 -80 29 -100 160 -111 l78
-7 -5 -38 c-5 -35 -3 -39 17 -39 19 0 20 3 10 15 -7 9 -9 26 -5 45 4 18 3 30
-4 30 -5 0 -8 10 -5 22 2 13 7 39 10 58 4 19 8 44 10 55 4 20 26 226 44 422
12 119 24 188 44 248 18 50 43 180 61 314 l13 96 2 -120 c2 -114 3 -117 12
-60 14 90 3 604 -15 695 -28 139 -95 298 -165 386 -50 64 -154 134 -250 168
-89 32 -206 35 -289 9 -69 -22 -69 -34 0 -16 50 14 146 18 196 8 116 -22 246
-105 336 -214 l20 -24 -30 7 c-16 3 -64 6 -105 5 -254 -2 -329 3 -530 37 -114
19 -104 18 -165 6 -59 -12 -109 -62 -156 -154 -89 -176 -119 -338 -114 -613 3
-197 26 -371 75 -560 11 -44 25 -118 30 -165 6 -47 17 -132 25 -190 42 -302
42 -333 5 -345 -23 -7 -129 46 -192 96 -20 16 -42 29 -47 29 -6 0 -12 8 -12
18 -3 52 -8 99 -21 207 -12 100 -15 114 -21 83 -4 -20 -5 -47 -3 -60 3 -13 8
-50 11 -83 3 -33 8 -84 12 -114 7 -67 -6 -62 -37 14 -12 30 -26 55 -30 55 -21
0 -39 102 -41 233 -1 53 -6 100 -11 103 -6 4 -8 58 -6 129 1 68 6 121 9 119 4
-2 7 40 8 93 1 58 7 103 14 112 10 12 9 13 -3 6 -12 -7 -13 -6 -4 6 6 8 11 28
12 44 22 342 122 824 193 929 12 17 18 22 14 11 -4 -11 -19 -58 -32 -105 -14
-47 -29 -94 -33 -105 -22 -55 -61 -360 -67 -519 -3 -94 -3 -169 0 -166 3 3 7
48 8 100 1 52 5 124 10 160 4 36 13 110 19 165 20 191 74 394 124 474 39 61
81 91 129 91 42 0 42 1 71 62 55 115 119 167 264 212 105 33 232 35 345 7 75
-20 163 -58 154 -67 -3 -3 -13 -1 -24 5 -43 25 -125 50 -199 61 -66 10 -96 9
-169 -4 -140 -24 -292 -110 -310 -176 -7 -24 -7 -24 26 7 101 94 222 138 379
137 87 -1 118 -5 185 -28 99 -34 198 -99 268 -176 49 -55 165 -236 160 -251
-1 -4 4 -13 13 -20 13 -10 13 -9 5 14 -17 45 -61 126 -107 200 -43 69 -43 70
-10 32 42 -48 125 -189 133 -227 3 -16 10 -28 14 -28 5 0 9 -24 8 -52 -1 -29
1 -64 5 -78 3 -14 9 -40 12 -59 3 -18 8 -43 10 -55 4 -21 21 -228 27 -336 2
-30 4 -1 5 65 2 168 -22 410 -39 399 -5 -3 -9 0 -9 5 0 6 4 11 9 11 6 0 6 12
1 30 -5 17 -5 28 0 25 12 -7 47 -148 65 -263 20 -129 33 -419 30 -664 -1 -103
1 -185 5 -183 11 7 8 -59 -4 -74 -8 -11 -8 -13 2 -7 9 5 12 -3 12 -29 0 -22
-4 -34 -10 -30 -6 3 -10 -4 -10 -17 0 -19 2 -20 11 -8 7 11 9 -33 6 -150 -4
-156 -6 -169 -35 -246 -34 -85 -61 -131 -62 -104 0 9 -6 4 -13 -10 -64 -119
-84 -147 -136 -187 l-46 -36 33 7 c59 11 119 66 137 126 4 14 20 39 35 55 37
40 72 105 101 190 l24 70 -3 465 c-2 446 -10 635 -33 765 -33 196 -62 308
-100 392 -10 24 -19 46 -19 50 0 26 -108 182 -174 251 -102 106 -246 202 -321
212 -3 0 -24 8 -47 16 -57 21 -256 27 -321 10z m-54 -452 c189 -34 262 -39
571 -32 43 1 53 -3 73 -28 37 -45 100 -182 120 -259 24 -97 24 -493 0 -680
-34 -253 -36 -262 -84 -315 -53 -59 -196 -158 -300 -208 -76 -36 -81 -37 -188
-37 -187 1 -272 42 -452 221 -89 89 -103 106 -103 136 0 18 -5 51 -10 73 -17
77 -41 381 -39 512 2 239 54 424 157 562 29 39 116 83 150 75 13 -2 60 -11
105 -20z m-252 -1386 c113 -103 133 -118 203 -152 106 -51 217 -64 360 -42 11
1 68 27 126 57 74 37 112 63 123 82 9 16 21 25 27 22 6 -3 30 10 54 29 23 20
47 36 52 36 16 0 -62 -669 -80 -687 -1 -1 -35 3 -76 8 -81 12 -106 26 -115 69
-8 34 -37 62 -57 55 -9 -4 -24 -24 -34 -47 l-18 -40 -66 7 c-36 4 -100 10
-142 14 -69 6 -81 10 -111 39 l-33 32 -24 -25 c-25 -26 -71 -32 -139 -19 -38
8 -48 24 -56 90 -14 113 -26 202 -35 254 -5 30 -14 93 -20 140 -6 47 -13 95
-16 108 -7 35 14 27 77 -30z"/>
<path d="M1914 2024 c37 -37 77 -89 93 -120 30 -61 52 -74 28 -17 -38 90 -133
203 -171 203 -10 0 9 -26 50 -66z"/>
<path d="M1098 1836 c-70 -49 -80 -100 -13 -60 44 25 50 26 158 21 62 -3 122
-8 135 -12 47 -15 21 17 -35 42 -41 19 -79 28 -133 31 -68 3 -79 1 -112 -22z"/>
<path d="M1860 1823 c-49 -8 -119 -34 -131 -49 -11 -13 -4 -14 57 -9 38 4 74
8 79 10 6 1 36 -1 69 -6 43 -6 69 -16 98 -39 45 -37 56 -34 35 7 -43 81 -99
104 -207 86z"/>
<path d="M1119 1647 c-48 -26 -89 -77 -89 -113 0 -30 15 -38 16 -9 2 35 49 90
94 110 114 52 247 -37 252 -170 1 -19 5 -35 10 -35 4 0 9 3 9 8 6 33 5 53 -2
58 -5 3 -9 13 -9 23 0 36 -54 101 -104 126 -63 32 -119 32 -177 2z"/>
<path d="M1149 1591 c-23 -24 -29 -38 -29 -73 l0 -44 58 -12 c81 -17 85 -16
106 19 23 39 9 79 -37 102 -29 14 -30 16 -9 16 13 1 34 -10 47 -24 29 -29 34
-88 9 -123 -8 -12 -11 -22 -5 -22 20 0 41 45 41 88 0 63 -40 102 -105 102 -38
0 -52 -5 -76 -29z m60 -14 c8 -10 7 -19 -3 -32 -12 -16 -16 -17 -30 -6 -19 16
-21 37 -3 44 20 9 24 8 36 -6z m49 -59 c-2 -13 -11 -24 -20 -26 -21 -4 -24 18
-6 36 19 19 30 14 26 -10z m-98 -15 c0 -22 -2 -25 -10 -13 -13 20 -13 40 0 40
6 0 10 -12 10 -27z"/>
<path d="M1790 1605 c-85 -39 -173 -173 -130 -200 6 -3 10 -3 11 2 14 150 156
238 274 169 46 -27 85 -85 85 -126 0 -12 5 -18 10 -15 31 19 -13 114 -71 152
-50 33 -128 41 -179 18z"/>
<path d="M1800 1562 c-49 -26 -68 -84 -46 -137 12 -27 20 -35 33 -32 10 3 40
8 66 12 38 5 50 12 59 31 17 36 0 76 -42 96 -34 17 -34 18 -8 18 17 0 35 -11
52 -31 28 -33 32 -59 16 -90 -8 -15 -7 -19 4 -19 21 0 31 45 20 88 -16 65 -93
96 -154 64z m34 -38 c8 -21 -1 -34 -24 -34 -25 0 -35 17 -20 35 16 20 36 19
44 -1z m-39 -105 c8 -12 6 -12 -8 0 -10 8 -17 26 -16 45 l1 31 7 -31 c4 -17
12 -37 16 -45z m90 50 c0 -8 -12 -15 -30 -17 -30 -4 -30 -4 -11 17 21 23 41
23 41 0z"/>
<path d="M1524 1549 c-3 -6 -1 -16 5 -22 9 -9 14 -8 21 3 9 15 4 30 -10 30 -5
0 -12 -5 -16 -11z"/>
<path d="M1600 1485 c0 -8 5 -15 10 -15 6 0 10 7 10 15 0 8 -4 15 -10 15 -5 0
-10 -7 -10 -15z"/>
<path d="M1535 1449 c-10 -15 3 -25 16 -12 7 7 7 13 1 17 -6 3 -14 1 -17 -5z"/>
<path d="M1007 1389 c-4 -15 -1 -19 11 -17 21 4 29 38 9 38 -8 0 -17 -9 -20
-21z"/>
<path d="M1495 1360 c-3 -5 3 -10 14 -10 12 0 21 5 21 10 0 6 -6 10 -14 10 -8
0 -18 -4 -21 -10z"/>
<path d="M1667 1330 c3 -11 12 -20 19 -20 17 0 18 12 2 28 -18 18 -27 15 -21
-8z"/>
<path d="M1240 1326 c0 -9 7 -16 16 -16 17 0 14 22 -4 28 -7 2 -12 -3 -12 -12z"/>
<path d="M1415 1270 c-47 -91 32 -174 143 -149 54 12 86 52 79 102 -3 22 -13
47 -22 56 -16 15 -17 14 -10 -14 8 -35 8 -34 6 -62 -1 -26 -46 -53 -86 -53
-42 0 -92 28 -99 56 -4 15 0 38 9 56 18 37 18 38 5 38 -5 0 -16 -13 -25 -30z"/>
<path d="M1276 1283 c-11 -11 -6 -23 9 -23 8 0 15 4 15 9 0 13 -16 22 -24 14z"/>
<path d="M1181 1111 c-15 -10 -5 -34 12 -28 6 2 23 -22 38 -53 31 -65 98 -128
175 -165 65 -31 84 -32 28 -2 -56 31 -78 48 -97 78 -18 28 -14 41 10 32 12 -5
12 -7 1 -14 -9 -6 -7 -9 8 -9 28 0 91 -26 100 -42 5 -8 10 -4 15 10 11 28 49
29 56 2 6 -22 14 -25 29 -11 5 5 20 11 34 13 14 2 24 9 22 16 -1 7 8 12 22 12
13 0 31 3 40 6 28 11 18 -26 -14 -54 -17 -15 -52 -35 -78 -45 l-47 -18 38 5
c83 11 182 78 218 147 10 21 19 41 19 44 0 10 -29 5 -42 -8 -28 -28 -63 -39
-139 -44 -135 -10 -339 26 -371 64 -12 15 -10 16 15 9 139 -34 278 -48 387
-37 47 4 76 9 65 10 -20 2 -20 2 0 12 13 6 -24 8 -110 5 -92 -2 -140 0 -165
10 -19 7 -77 15 -128 16 -82 3 -96 7 -110 26 -12 14 -21 19 -31 13z m424 -171
c4 -6 -6 -10 -22 -9 -25 0 -26 1 -8 9 11 5 21 9 22 9 1 1 5 -3 8 -9z"/>
<path d="M1816 1055 c4 -8 12 -15 20 -15 8 0 14 7 14 15 0 8 -9 15 -20 15 -13
0 -18 -5 -14 -15z"/>
<path d="M1290 882 c0 -14 76 -71 123 -92 28 -13 65 -20 111 -20 80 0 130 20
192 75 l39 35 -47 -30 c-146 -95 -253 -94 -375 6 -24 19 -43 31 -43 26z"/>
<path d="M1465 2490 c-13 -6 9 -9 66 -9 64 -1 90 -5 99 -16 7 -8 21 -15 31
-15 29 0 149 -50 204 -86 65 -42 154 -135 197 -204 18 -31 39 -64 46 -75 6
-11 15 -27 18 -35 3 -8 12 -28 20 -45 l14 -30 0 33 c0 23 -4 31 -12 26 -7 -5
-9 -2 -5 8 3 9 -1 27 -8 42 -8 15 -15 30 -15 34 -3 19 -38 82 -72 132 -74 108
-208 199 -344 234 -66 17 -205 20 -239 6z"/>
<path d="M1561 2276 c10 -9 99 -14 104 -5 4 5 -18 9 -51 9 -32 0 -55 -2 -53
-4z"/>
<path d="M822 1873 c-27 -129 -36 -263 -24 -358 8 -65 8 -61 10 65 1 115 27
332 47 388 2 6 1 12 -3 12 -4 0 -18 -48 -30 -107z"/>
<path d="M872 1883 c-12 -54 -22 -116 -21 -138 1 -28 7 -10 19 60 9 55 21 117
25 138 4 20 5 37 3 37 -3 0 -14 -44 -26 -97z"/>
<path d="M841 1608 c1 -106 7 -99 11 15 2 42 0 77 -4 77 -5 0 -7 -42 -7 -92z"/>
<path d="M2213 1235 c0 -22 2 -30 4 -17 2 12 2 30 0 40 -3 9 -5 -1 -4 -23z"/>
<path d="M2290 1155 c-6 -223 -6 -290 1 -415 l6 -125 1 100 c1 55 4 141 6 190
2 50 1 153 -4 230 l-7 140 -3 -120z"/>
<path d="M2293 440 c0 -25 2 -35 4 -22 2 12 2 32 0 45 -2 12 -4 2 -4 -23z"/>
</g>
</svg>
